<svg width="21" height="20" viewBox="0 0 21 20" fill="none" xmlns="http://www.w3.org/2000/svg">
<path d="M7.38591 0.0911205C7.4582 0.134348 7.52125 0.191375 7.57147 0.258942C7.62168 0.326509 7.65807 0.403294 7.67856 0.484909C7.69906 0.566524 7.70325 0.651371 7.69089 0.734604C7.67854 0.817837 7.64989 0.897824 7.60658 0.969996L4.3402 6.40596H16.1869L12.9192 0.969996C12.8318 0.824229 12.8059 0.649742 12.8473 0.484921C12.8887 0.320099 12.9939 0.178445 13.1399 0.0911205C13.2859 0.00379583 13.4606 -0.0220462 13.6257 0.0192792C13.7907 0.0606046 13.9326 0.165712 14.02 0.31148L17.6828 6.40596H19.2442C19.5844 6.40596 19.9107 6.54094 20.1513 6.7812C20.3919 7.02147 20.5271 7.34733 20.5271 7.68712V8.96828C20.5271 9.30806 20.3919 9.63393 20.1513 9.8742C19.9107 10.1145 19.5844 10.2494 19.2442 10.2494V16.0147C19.2442 16.8641 18.9062 17.6788 18.3048 18.2794C17.7033 18.8801 16.8874 19.2176 16.0368 19.2176H4.4903C3.63966 19.2176 2.82386 18.8801 2.22236 18.2794C1.62086 17.6788 1.28294 16.8641 1.28294 16.0147V10.2494C0.942686 10.2494 0.616364 10.1145 0.375766 9.8742C0.135167 9.63393 0 9.30806 0 8.96828V7.68712C0 7.34733 0.135167 7.02147 0.375766 6.7812C0.616364 6.54094 0.942686 6.40596 1.28294 6.40596H2.84429L6.50453 0.31148C6.54782 0.239292 6.60492 0.176327 6.67258 0.126183C6.74024 0.0760381 6.81714 0.0396961 6.89886 0.0192328C6.98059 -0.00123055 7.06556 -0.00541424 7.14891 0.00692043C7.23226 0.0192551 7.31364 0.0478665 7.38591 0.0911205ZM2.56589 10.2494V16.0147C2.56589 16.5243 2.76864 17.0131 3.12954 17.3735C3.49044 17.7339 3.97992 17.9364 4.4903 17.9364H16.0368C16.5472 17.9364 17.0367 17.7339 17.3976 17.3735C17.7585 17.0131 17.9612 16.5243 17.9612 16.0147V10.2494H2.56589ZM1.28294 7.68712V8.96828H19.2442V7.68712H1.28294ZM5.13178 11.5306C5.30191 11.5306 5.46507 11.5981 5.58537 11.7182C5.70567 11.8384 5.77325 12.0013 5.77325 12.1712V16.0147C5.77325 16.1845 5.70567 16.3475 5.58537 16.4676C5.46507 16.5877 5.30191 16.6552 5.13178 16.6552C4.96165 16.6552 4.79849 16.5877 4.67819 16.4676C4.55789 16.3475 4.4903 16.1845 4.4903 16.0147V12.1712C4.4903 12.0013 4.55789 11.8384 4.67819 11.7182C4.79849 11.5981 4.96165 11.5306 5.13178 11.5306ZM7.69767 11.5306C7.86779 11.5306 8.03096 11.5981 8.15125 11.7182C8.27155 11.8384 8.33914 12.0013 8.33914 12.1712V16.0147C8.33914 16.1845 8.27155 16.3475 8.15125 16.4676C8.03096 16.5877 7.86779 16.6552 7.69767 16.6552C7.52754 16.6552 7.36438 16.5877 7.24408 16.4676C7.12378 16.3475 7.05619 16.1845 7.05619 16.0147V12.1712C7.05619 12.0013 7.12378 11.8384 7.24408 11.7182C7.36438 11.5981 7.52754 11.5306 7.69767 11.5306ZM10.2636 11.5306C10.4337 11.5306 10.5968 11.5981 10.7171 11.7182C10.8374 11.8384 10.905 12.0013 10.905 12.1712V16.0147C10.905 16.1845 10.8374 16.3475 10.7171 16.4676C10.5968 16.5877 10.4337 16.6552 10.2636 16.6552C10.0934 16.6552 9.93026 16.5877 9.80997 16.4676C9.68967 16.3475 9.62208 16.1845 9.62208 16.0147V12.1712C9.62208 12.0013 9.68967 11.8384 9.80997 11.7182C9.93026 11.5981 10.0934 11.5306 10.2636 11.5306ZM12.8294 11.5306C12.9996 11.5306 13.1627 11.5981 13.283 11.7182C13.4033 11.8384 13.4709 12.0013 13.4709 12.1712V16.0147C13.4709 16.1845 13.4033 16.3475 13.283 16.4676C13.1627 16.5877 12.9996 16.6552 12.8294 16.6552C12.6593 16.6552 12.4962 16.5877 12.3759 16.4676C12.2556 16.3475 12.188 16.1845 12.188 16.0147V12.1712C12.188 12.0013 12.2556 11.8384 12.3759 11.7182C12.4962 11.5981 12.6593 11.5306 12.8294 11.5306ZM15.3953 11.5306C15.5655 11.5306 15.7286 11.5981 15.8489 11.7182C15.9692 11.8384 16.0368 12.0013 16.0368 12.1712V16.0147C16.0368 16.1845 15.9692 16.3475 15.8489 16.4676C15.7286 16.5877 15.5655 16.6552 15.3953 16.6552C15.2252 16.6552 15.062 16.5877 14.9417 16.4676C14.8214 16.3475 14.7539 16.1845 14.7539 16.0147V12.1712C14.7539 12.0013 14.8214 11.8384 14.9417 11.7182C15.062 11.5981 15.2252 11.5306 15.3953 11.5306Z" fill="white"/>
</svg>
